<svg xmlns="http://www.w3.org/2000/svg" viewBox="0 0 900.13 516">
  <defs>
    <style>
      * {
        stroke: #fff;
        fill: #fff;
        color: #fff;
      }

      .cls-1, .cls-2 {
        fill: none;
        stroke: #fff;
        stroke-miterlimit: 10;
        stroke-width: 15px;
      }

      .cls-1 {
        stroke-linecap: round;
        stroke-dasharray: 0 29.94;
      }

      #Text * {
        fill: #fff;
      }

      .cls-3 {
        fill: #231f20;
      }
    </style>
  </defs>
  <title>nce-logo-bold</title>
  <g id="Circles">
    <g id="_Group_" data-name="&lt;Group&gt;">
      <circle id="_Path_" data-name="&lt;Path&gt;" class="cls-1" cx="449.89" cy="258" r="233.5"/>
    </g>
    <circle id="_Path_2" data-name="&lt;Path&gt;" class="cls-2" cx="449.89" cy="258" r="250.5"/>
  </g>
  <g id="Swoops">
    <g id="_Group_2" data-name="&lt;Group&gt;">
      <g id="_Group_3" data-name="&lt;Group&gt;">
        <path id="_Path_3" data-name="&lt;Path&gt;" d="M261.59,670.62c5.51-7-2.23-15.17-7.62-19.55-6-4.9-13.74-5.07-16.39,3.37-2.17,6.89,2.06,13,6.53,17.93,4.94,5.39,11.28,10.54,19.06,8.79,17.41-3.91,16.72-23,9.56-35.78-7-12.4-18.15-22.32-30-29.88-13-8.27-30.61-15.14-45.64-8.25-7.16,3.28-14.79,10.13-16.82,18-1.94,7.51,4.18,14.06,9.45,18.61,11.36,9.8,29.55,9,41.38.47,8-5.84,14-14.57,17.39-23.85,2.9-7.88,4.27-16.66,2.16-24.91-1.86-7.29-6.2-13.58-11.26-19-9.8-10.59-22.37-16.74-36.46-19.39-24.7-4.64-63.52-3-76,23.12-3.79,7.92-2.59,15.34,2.67,22.21,4.88,6.37,11.09,11.49,18.68,14.19,15.26,5.42,29.89-.31,43.41-7.51C205,602,217.46,592,223.41,577.72c5-12.09,5.88-27.3,1.21-39.64-5.42-14.28-17.31-26.35-29.27-35.4a125.26,125.26,0,0,0-43.69-20.75,118.17,118.17,0,0,0-50.54-2.47c-15.67,2.74-34.31,8.14-45.79,19.84-10,10.19-4,22.06,4.37,31.15,11.33,12.3,26.65,18.83,42.92,21.65,33.73,5.87,71.13-.64,99.1-21C212.91,523,223.07,512,226.36,498.2c3.59-15-1-31.13-9.73-43.5-9.36-13.22-22.37-23.46-36.79-30.65-13.42-6.7-27.46-11.55-42.24-5.86-7,2.68-12.9,7.9-13.13,15.85-.21,7.19,4.2,14,8.34,19.58,9.71,13,23.09,20.61,38.91,23.57a111,111,0,0,0,42.13-.2c12.62-2.54,26.27-8,33.27-19.48,14.49-23.71-7-56.57-27.51-68.84a36.19,36.19,0,0,0-21.11-5c-6.21.39-15.18,1.93-17.94,8.4-3,7,3.11,14.89,7.29,19.9,5.5,6.58,12.38,12.84,20.48,16,13.69,5.27,30.21,1.79,42.4-5.69,5.74-3.52,9.68-8.15,14.16-13,3.79-4.11,7.27-8.26,9.67-13.38,7.06-15,.53-32.37-14.39-40-6.44-3.29-14.39-4.15-19.74,1.58-4.34,4.64-4.23,10.95-1.26,16.29,3.09,5.56,10.23,14.75,17.57,13.43,8.81-1.59,7.52-10.25,3.25-15.69-1.57-2-4.65-6.75-7.36-7.16-2.48-.37-.76,1.92.35,3.34,1.56,2-1.07,6.23-3.56,7.55-1.48.78-2.9.63-4.43,1l-.58-.12q-3.67-.93,3.6,4c.11-.58-.51-1.79-.6-2.44-.61-4.67,2.15-9.09,6-11.5a12.59,12.59,0,0,1,9.95-1.37c.54.14,4.45,1.66,4.51,1.59-.69.81-1.53-3.63-1.85-1.72,0,0,.37,1.29.36,1.28.9,6.62,1,12.07-1.79,18.35-3.34,7.44-9.55,14.34-15.3,20.08a52.81,52.81,0,0,1-33.71,14.81c-8.49.47-29.32-2.39-25-15.66,3.57-11.05,23.54-10,31.88-6.76,17.62,6.82,23.6,34.21,14.73,49.35-11,18.72-37.82,22.35-57.42,21.79-11.43-.32-23.66-1.94-34-7a28.88,28.88,0,0,1-6.62-4.23c1.92,1.72-1.1-1.78-1.53-2.55-3.52-6.33-3.81-14,1.46-19.46,8.48-8.77,23.46-9.45,34.36-6.09a93,93,0,0,1,30.29,16.05c9.09,7.41,12.83,19.33,13.32,30.73s-3.1,21.42-10.09,30.31c-15.51,19.73-41.44,30.9-65.57,35.32a142.07,142.07,0,0,1-42.29.86c-12-1.44-27.83-4.46-37-13.12-.25-.24.7,1.14,0-.06a17.3,17.3,0,0,1-1.07-2.31,14.81,14.81,0,0,1-.83-6.63c.54-4.36,3.72-8,6.88-10.88,9.57-8.57,22.81-13.28,35.06-16.39,26.69-6.76,55.22-3.31,80.1,8.31,9.81,4.59,20.71,10.53,27.32,19.39,6.07,8.14,7.64,17.53,7.46,27.43-.49,26.55-20,43.68-42.54,54.06-11.45,5.27-23.15,8.39-35.51,3.92a25.87,25.87,0,0,1-3.12-1.33c-.28-.14-1.92-1.16-2-1.13,1.41-.57,1.67,4.57,1.74,1.35,0-1.77-.83-3.59-.7-5.5a19.24,19.24,0,0,1,1.4-5.79,36.39,36.39,0,0,1,7.85-11.89c15.7-15.88,45-16.7,65.63-13.37,9,1.45,20.63,4,27.44,10.67-1.18-1.14.33.53.63,1.07a25.18,25.18,0,0,1,1.5,3.2,32.25,32.25,0,0,1,1.85,12.92A48.69,48.69,0,0,1,236.87,613c-8,17.9-25.89,31.45-46.16,25.4a37,37,0,0,1-4.27-1.77l2,1.89q2.35,3.45,1.89,1.34a12.82,12.82,0,0,0-.08-1.7c.19-3.55,2.21-6.88,4.34-9.61a33.82,33.82,0,0,1,15.5-11.36c12.61-4.24,26.67.65,37.59,7.11a79.64,79.64,0,0,1,10.29,7.28c1,.79,1.9,1.61,2.82,2.44-2.35-2.11.38.83-.91-.86.86,1.13,1.25,1.29,2.36,2.92a30.36,30.36,0,0,1,3.72,7.53c1.77,5.37,2,11.85-.21,17.14-2.6,6.16-10.36,10.61-17.07,9.6-.4-.06-4.24-1.13-4.07-1.49,0,0,3.63,3.76,3.6,3.79s-.67-2.07-.7-2.27a11.46,11.46,0,0,1,1.74-8.09c1.95-3,4.12-3.63,7.52-3.6,1.71,0,4.31,3.29-1-2.07s-1.9-2.92-2.53-1.14a13.19,13.19,0,0,1-1.85,4.18c-1.72,2.18,9.27,12.18,10.2,11Z" transform="translate(-50.11 -259.55)"/>
      </g>
    </g>
    <g id="_Group_4" data-name="&lt;Group&gt;">
      <g id="_Group_5" data-name="&lt;Group&gt;">
        <path id="_Path_4" data-name="&lt;Path&gt;" d="M747,667c-1.56-2,1.07-6.23,3.56-7.55,1.48-.78,2.9-.64,4.43-1l.58.12q3.67.93-3.6-4c-.11.58.51,1.78.6,2.44.61,4.67-2.15,9.09-6,11.5a12.54,12.54,0,0,1-10,1.36c-.54-.13-4.45-1.65-4.51-1.58.69-.82,1.53,3.63,1.85,1.72,0,0-.37-1.3-.36-1.28-.9-6.62-1-12.07,1.79-18.35,3.92-8.73,10.66-15.21,18.24-20.8,11-8.1,24.9-15.12,38.94-13.85,4.92.44,11.5,2,14.92,5.91,4.3,4.88,2.21,11.63-2.89,14.67-9.9,5.9-25.85,4.46-34.58-3-4.21-3.6-6.82-9.5-8.64-14.64-4.35-12.31-3.51-26.29,5.76-36.08C782,567,808.39,565.07,828.57,567.09c10.79,1.08,24,3.26,32.32,10.71-1.11-1-.57-.82,0,.16.47.82,1.08,1.57,1.54,2.4a19.34,19.34,0,0,1,2.7,10c-.26,6.73-5.2,11.44-11,14.1-11.42,5.27-23.48,3.61-34.67-1.27-9.65-4.21-21-9.4-27.77-17.81-7.6-9.48-9-22-8.71-33.71.23-10.25,5.06-19.67,11.59-27.36,16.34-19.25,42.46-30.07,66.9-34,26.46-4.22,55.22.84,77.48,16,.58.4-.48-1.73-.3-.35.1.77.73,1.62.92,2.41a13.8,13.8,0,0,1-.36,6.87c-1.22,4.3-4.12,8-7.37,11-9.42,8.57-22.65,12.69-34.94,14.82-27.39,4.75-56.74,1.12-81.7-11.24-9.5-4.71-19.92-10.73-25.92-19.77-6.6-9.94-7.61-22.17-5.19-33.66,5-23.9,27.14-38.29,48.48-46.59,6.69-2.6,13.9-3.94,21-2.79a40.49,40.49,0,0,1,6.93,1.77,28.41,28.41,0,0,1,3.56,1.48c.34.18,1.13.81,1.5.83.91.61.72.32-.55-.87-1.34-1.78-1.46-1.52-.34.81,2.66,10.48-7,21.95-15.18,27.22-10,6.44-22.63,8.7-34.37,9.45a105.65,105.65,0,0,1-33.24-2.83,58,58,0,0,1-15.06-6,21.52,21.52,0,0,1-4.12-2.92c1,1-.11-.14-.41-.7a30.85,30.85,0,0,1-1.72-3.57c-4.06-10.6-1.29-22.9,3.71-32.71,4-7.94,10.07-15.3,17.82-19.82a33.23,33.23,0,0,1,18-4.4,35.54,35.54,0,0,1,9.11,1.36c1.3.39,2.49,1.1,3.76,1.5,2.74.86-2.66-5.38-3.35-3a15.47,15.47,0,0,0,0,2.25c-.6,6.58-6.62,12.53-11.66,16.18a33,33,0,0,1-16.72,6.07c-11.67,1-25-2.54-34.18-10-2-1.66-3.32-3.78-5.11-5.71-.89-1-1.89-1.8-2.82-2.72,2.36,2.33-.46-.93.91.86a37.24,37.24,0,0,1-2.36-2.93,30.19,30.19,0,0,1-3.72-7.53c-1.77-5.37-2-11.84.21-17.13,2.6-6.16,10.36-10.61,17.07-9.61.4.06,4.24,1.14,4.07,1.5,0-.06-3.63-3.76-3.6-3.79s.67,2.06.7,2.27a11.46,11.46,0,0,1-1.74,8.09c-1.95,3-4.12,3.63-7.52,3.6-1.71,0-4.31-3.29,1,2.07s1.9,2.92,2.53,1.14a13.09,13.09,0,0,1,1.85-4.18c1.72-2.18-9.27-12.18-10.2-11-5.5,7,2.22,15.2,7.62,19.56,6,4.87,13.73,5.1,16.39-3.37,2.17-6.89-2.06-13-6.53-17.93-4.94-5.4-11.27-10.54-19.06-8.8-17.42,3.9-16.72,23-9.56,35.79a73.42,73.42,0,0,0,12.55,16.12c.62.61,1.24,1.21,1.88,1.79,1,.89,2.65,2.63-1.32-1.45-4.76-4.92-1.08-.81-.24.22a77.05,77.05,0,0,0,9.49,9.71c11.65,9.95,27.32,16.25,42.8,14.34a34.25,34.25,0,0,0,19.88-9.39c5-4.83,10-12.23,6.78-19.35-6.77-14.84-24.58-20.64-39.52-16.44-11.73,3.3-20.69,13.28-25.88,24-6.16,12.68-7.66,27.6-.08,40a61.24,61.24,0,0,0,33.08,25.82c13.71,4.51,28.76,5.27,43,3.69,13.86-1.53,29.37-5.27,38.52-16.63,4.22-5.25,8-12.16,7.17-19.12-1-8.24-8.55-15.86-15-20.42-12.55-8.87-28.06-7.76-41.59-1.92-13.88,6-27.74,14-36.69,26.52-8.67,12.11-12.25,29.09-7.9,43.5s15.34,26.51,26.67,35.82a123.76,123.76,0,0,0,43.28,22.54c16.86,5,34.21,6.16,51.7,4.8,16-1.25,34.44-5.24,46.56-16.6,4.12-3.86,7.3-8.84,7.75-14.58.49-6.25-3.64-11.71-7.5-16.19-10.87-12.62-26.32-19.81-42.14-24.12-33-9-69.86-2.78-98.46,16-11.87,7.8-23.16,18.58-27.59,32.43-4.12,12.87-2.36,28.52,3.56,40.5,7.11,14.38,19.55,26.14,33.07,34.48,12.39,7.65,28,15.59,43,13.13,6.39-1,13.64-3.5,17.9-8.63,5.5-6.61,3.57-15.2-.24-22.09a60,60,0,0,0-35.37-28.63c-13.24-3.89-27.68-4.62-41.34-3.09-13.08,1.46-27.27,5.11-37,14.49-21.42,20.61-3.74,53.43,14.41,69.32,11,9.63,27.42,15.11,41.34,8,17.5-8.91-5.4-31-14.16-37.07-13.67-9.51-30.19-6.87-44.3.36-11.93,6.12-24,15.21-29.88,27.67-7.08,15.07-.52,32.33,14.39,40,6.43,3.3,14.4,4.14,19.74-1.58,4.34-4.64,4.23-11,1.26-16.29-3.09-5.55-10.24-14.75-17.57-13.43-8.81,1.58-7.52,10.25-3.25,15.69,1.57,2,4.65,6.75,7.36,7.16,2.48.37.76-1.93-.35-3.34Z" transform="translate(-50.11 -259.55)"/>
      </g>
    </g>
  </g>
  <g id="Text">
    <g id="_Group_6" data-name="&lt;Group&gt;">
      <path class="cls-3" d="M324.11,488.65V598.76h-33.4V426.94h25.9l89.54,112.77V427.18h33.39V598.76h-27.1Z" transform="translate(-50.11 -259.55)"/>
      <path class="cls-3" d="M440.75,511.64a89,89,0,0,1,5.69-31.1,83.33,83.33,0,0,1,43.19-47.07q15.74-7.5,35.82-7.5,23.71,0,41,10.41t25.77,27.1l-25.65,17.67a43.77,43.77,0,0,0-8.23-12.23,41.21,41.21,0,0,0-10.4-7.86,46.88,46.88,0,0,0-11.62-4.24,55.56,55.56,0,0,0-11.86-1.33q-12.58,0-21.9,5.08a48.35,48.35,0,0,0-15.49,13.19,58.14,58.14,0,0,0-9.31,18.4,69.52,69.52,0,0,0-3.15,20.44,66.74,66.74,0,0,0,3.63,21.91A58.26,58.26,0,0,0,488.55,553a51.32,51.32,0,0,0,16,12.82A43.62,43.62,0,0,0,525,570.68a53.72,53.72,0,0,0,12.1-1.45,46,46,0,0,0,12-4.6,45.19,45.19,0,0,0,10.53-8.1,37.46,37.46,0,0,0,7.75-12l27.34,15.73a51.52,51.52,0,0,1-11.74,17.06,75.29,75.29,0,0,1-17.18,12.46,87.88,87.88,0,0,1-20.45,7.75A89.74,89.74,0,0,1,524,600.21a73.11,73.11,0,0,1-33.64-7.75,87.57,87.57,0,0,1-26.26-20.2,93.91,93.91,0,0,1-17.18-28.32A88.38,88.38,0,0,1,440.75,511.64Z" transform="translate(-50.11 -259.55)"/>
      <path class="cls-3" d="M712.27,569.47v29.29H593V426.94H710.09v29.28H626.36V497.6h72.36v27.11H626.36v44.76Z" transform="translate(-50.11 -259.55)"/>
    </g>
  </g>
</svg>
