<svg id="Shopped_Suzie_Signature_Image" data-name="Shopped_Suzie_Signature Image" xmlns="http://www.w3.org/2000/svg" viewBox="0 0 150.34 118.55"><title>suzie-sig-vector</title><path d="M116.25,80.38c-.82-.19-1.45-.91-2.39-.8" transform="translate(-27.56 -16.91)"/><path d="M119.56,81.46" transform="translate(-27.56 -16.91)"/><path d="M124.27,83a28.42,28.42,0,0,1,4.85,2.17l3.2,1.18c.18.08,1.62.47,2.23.77s1.27.66,1.92.93,1.23.43,1.84.64c0-.33-.07-.52-.21-.59-1-.57-2-1.11-3-1.67-.72-.4-1.42-.85-2.16-1.21-.34-.17-.64-.29-1-.47-1-.52-2-1-3-1.49-1.4-.75-2.82-1.45-4.24-2.13s-2.94-1.36-4.42-2c-.81-.36-1.58-.77-2.36-1.19A42.36,42.36,0,0,0,113.21,76c-.52-.2-1-.48-1.53-.66-2-.7-4-1.35-6-2.06s-4.05-1.59-6.12-2.26q-4.54-1.48-9.15-2.76c-1.76-.49-3.57-.77-5.35-1.15-2.13-.45-4.24-1-6.38-1.35-1.84-.34-3.7-.57-5.55-.82-2.24-.3-4.48-.71-6.73-.83-2.82-.15-5.66-.15-8.49-.06a50,50,0,0,0-12.29,1.75,45.37,45.37,0,0,0-5.06,1.73,25.17,25.17,0,0,0-5.53,3.26,20.2,20.2,0,0,0-6.42,8.61,13,13,0,0,0-1,3.84,24.45,24.45,0,0,0,2.45,12.32,43.38,43.38,0,0,0,3.2,5.32,15,15,0,0,0,3.57,4.29,6.42,6.42,0,0,1,.93.93,28.74,28.74,0,0,0,4.22,4c2.41,1.77,4.68,3.73,7.13,5.42a95.84,95.84,0,0,0,9.11,5.75c4.11,2.19,8.35,4.19,12.64,6,3.08,1.3,6.33,2.21,9.54,3.2,2.17.67,4.38,1.21,6.59,1.75s4.34,1.08,6.54,1.45c2.59.43,5.22.67,7.83,1,2,.24,4,.56,6.06.66,2.74.14,5.5.15,8.25.11a86.44,86.44,0,0,0,11.82-.77A79.49,79.49,0,0,0,139,132.18a48.46,48.46,0,0,0,11.13-4.93,34.19,34.19,0,0,0,6.31-5.09,30.86,30.86,0,0,0,4.36-6,17.55,17.55,0,0,0,2.66-7.74,65.62,65.62,0,0,0,.23-6.94,16.78,16.78,0,0,0-.72-4.46A32.7,32.7,0,0,0,158,87.63a45.76,45.76,0,0,0-6.8-7.38,85.34,85.34,0,0,0-8-6.32,124,124,0,0,0-13.17-7.57c-3.75-2-7.72-3.44-11.64-5s-8.08-3-12.21-4.21-8.45-2.39-12.69-3.51q-4-1.06-8-1.93c-3.9-.84-7.82-1.61-11.74-2.39-2.47-.49-5-.89-7.41-1.41s-4.72-1.19-7.11-1.66a49.86,49.86,0,0,1-7.11-2.09,12.65,12.65,0,0,1-5.67-3.64c-1.44-1.72-1.48-2.8-.29-4.28a6.47,6.47,0,0,1,.59-.75,25,25,0,0,1,8.71-5.36c1.69-.6,3.37-1.23,5.06-1.82.75-.26,1.52-.44,2.28-.66,3-.87,5.93-1.93,9-2.57,4.8-1,9.66-1.75,14.5-2.54,1.57-.26,3.21-.16,4.76-.5,2.59-.58,5.23-.49,7.84-.82a74,74,0,0,1,8-.32A95.19,95.19,0,0,1,124.22,22c1,.16,2,.35,2.93.55A21.5,21.5,0,0,1,134,24.94c2,1.18,2.47,3.11.51,4.75a22,22,0,0,1-5.24,3.09,31.78,31.78,0,0,1-6.23,2.08c-2.29.5-4.56,1.15-6.87,1.55-3.1.54-6.23.93-9.36,1.32-2.73.34-5.47.66-8.21.86-2.43.18-4.87.27-7.3.26-6.55,0-13.11-.12-19.66-.18a42.36,42.36,0,0,1-8.33-.77c-1.31-.28-2.71-.39-3.78-1.61l.32-.42c.61-.81.46-1.3-.53-1.5a13.17,13.17,0,0,0-2.25-.27A2,2,0,0,0,55,36.16a3,3,0,0,0,.72,2.11,9,9,0,0,0,4.7,3.31,55.55,55.55,0,0,0,8.72,1.51c3.75.36,7.49.35,11.24.38s7.27-.19,10.91-.2a139.89,139.89,0,0,0,14.22-.77c1.94-.21,3.9-.31,5.83-.61,2.87-.45,5.71-1.06,8.57-1.54a53,53,0,0,0,11.82-3.41c2.2-.93,4.44-1.84,6.12-3.66a6.71,6.71,0,0,0,1.87-3.14A6.61,6.61,0,0,0,137,23.18a24.13,24.13,0,0,0-9.78-4.36A76.36,76.36,0,0,0,110.86,17c-2.31,0-4.63-.13-6.94-.09-1.63,0-3.25.22-4.87.37-2.58.23-5.16.47-7.74.74-1.85.19-3.7.44-5.55.68-1.62.2-3.25.34-4.85.64-3.29.63-6.56,1.35-9.84,2a35.57,35.57,0,0,0-5,1.12c-1.23.45-2.5.6-3.74.94s-2.37.68-3.54,1.07c-.86.29-1.71.64-2.55,1-1.59.63-3.19,1.22-4.76,1.91A13.14,13.14,0,0,0,48.32,29a1.83,1.83,0,0,1-.34.23,13.75,13.75,0,0,0-5.53,5,6.94,6.94,0,0,0-.78,3,6.27,6.27,0,0,0,.74,4A13.43,13.43,0,0,0,48,46.63a44.59,44.59,0,0,0,10.73,3.71c5.95,1.49,12,2.53,18,3.65,2.9.54,5.79,1.19,8.66,1.85,3.15.72,6.3,1.46,9.43,2.27s6,1.6,9,2.49q4.18,1.26,8.29,2.73c3.61,1.29,7.24,2.54,10.75,4.06s7,3.22,10.32,5A101.28,101.28,0,0,1,142,77.79,51.84,51.84,0,0,1,149.64,84c3.43,3.44,6.55,7.08,8.45,11.64a18.94,18.94,0,0,1,1.22,11.71A21.14,21.14,0,0,1,158.1,111a19.43,19.43,0,0,1-3.32,5.79,45.09,45.09,0,0,1-4,4,36.51,36.51,0,0,1-4.85,3.46,41.63,41.63,0,0,1-9,3.89q-2.86.88-5.74,1.67a19.44,19.44,0,0,1-2.8.57c-2.49.3-5,.6-7.49.77-3.3.22-6.61.38-9.92.41-2.07,0-4.14-.3-6.21-.39a68.13,68.13,0,0,1-11.39-1.42c-3.09-.66-6.16-1.37-9.23-2.11-1.82-.44-3.64-.9-5.43-1.47s-3.76-1.35-5.64-2c-.56-.2-1.14-.35-1.68-.59-1.32-.58-2.6-1.22-3.93-1.78a86.38,86.38,0,0,1-9.62-4.82c-1.83-1.06-3.61-2.2-5.37-3.37-2-1.35-4.1-2.65-6-4.19-2.29-1.86-4.46-3.87-6.56-5.93a26.89,26.89,0,0,1-8.13-15,13.78,13.78,0,0,1,1.92-10.11C36,74.76,39.33,72.71,43,71.1a50.09,50.09,0,0,1,4.8-1.46,36.87,36.87,0,0,1,9.68-1.43,71.82,71.82,0,0,1,9,.1c3.83.28,7.62.74,11.42,1.3a109,109,0,0,1,12.51,2.68c2.77.75,5.53,1.57,8.28,2.39,1.57.46,3.12,1,4.68,1.45.79.24,1.6.44,2.38.72,1.61.58,3.19,1.27,4.83,1.76" transform="translate(-27.56 -16.91)"/><path d="M176.42,49.13c.3.18.72.27.83.51a4.79,4.79,0,0,1,.43,3.69,3.58,3.58,0,0,0-.24.68c-.3,2.26-1.66,3.93-3.1,5.55a7.4,7.4,0,0,1-1.65,1.35c-2.81,1.73-5.77,2.89-9.16,2.27A7.81,7.81,0,0,1,159.62,61c-.28-.26-.58-.51-.84-.74-1.93,1.31-4,1.26-5.21,0-.05,0-.16.1-.15.14a9.39,9.39,0,0,1-1.71,5.76A6.69,6.69,0,0,1,147.57,69a17.52,17.52,0,0,1-4,.51,6.32,6.32,0,0,1-5.38-2.36c-.84-1-1.75-2.1-1.48-3.64a3.72,3.72,0,0,0-.2-1.12c-.7.36-1.3.66-1.88,1-2.12,1.17-4.09.3-5.54-1.1-2.18-2.11-2.74-4.89-3-7.74a32.19,32.19,0,0,1-.08-4A8.31,8.31,0,0,1,126.3,49c2.54-.92,3.76.41,4.28,2.42a21.19,21.19,0,0,1,.23,2.5c.16,1.22.34,2.45.61,3.65a6.7,6.7,0,0,0,.75,1.48,1.69,1.69,0,0,0,1.14-1.52c.3-2.21.53-4.44.84-6.65a12.92,12.92,0,0,1,.67-2.89c.21-.54.81-.92,1.17-1.3,1.79.53,1.85.68,1.66,2.33a10.51,10.51,0,0,0,.1,2.26c.15,1.38.34,2.76.53,4.14a1.53,1.53,0,0,0,.15.38l5.24-3.66c-.45-.44-.83-.25-1.23.05s-1.08.79-1.58,1.16c-1-.34-1.78-.86-1.81-1.83a2.39,2.39,0,0,1,1.48-2.39c2.13-1,4.29-1.59,6.58-.73a8.82,8.82,0,0,1,1.81,1.11,1.48,1.48,0,0,1,.48,1.82,8.63,8.63,0,0,1-1.5,3c-.14.18-.27.38-.37.51l4.32,2.53a8.13,8.13,0,0,0-.1-1.48,8.94,8.94,0,0,1,0-4c.26-1.22.66-1.79,1.48-1.92a2.57,2.57,0,0,1,2.85,1.26,4.93,4.93,0,0,1,.26,3.16,7.31,7.31,0,0,0,.72,3.94c0,.09.18.12.5.32a11.91,11.91,0,0,1-.72-5.4,6.47,6.47,0,0,1,3.69-5.76,6.26,6.26,0,0,1,6.59.54,2.22,2.22,0,0,1,.92,2.21,9.45,9.45,0,0,1-2.8,5.79,7.63,7.63,0,0,1-1.84,1,9.33,9.33,0,0,1-1.17.39A1.71,1.71,0,0,0,164,58.79a8.87,8.87,0,0,0,2.35-.32,14.68,14.68,0,0,0,4.81-2.07,14.17,14.17,0,0,0,3.74-4.4C175.43,51.15,175.85,50.25,176.42,49.13Zm-37.89,11a7.5,7.5,0,0,0-.21,1.35,3.78,3.78,0,0,0,.28,1.71A3.47,3.47,0,0,0,141.18,65a8,8,0,0,0,4-.35A5.3,5.3,0,0,0,148.29,62a1.81,1.81,0,0,0-.18-1.91A4.16,4.16,0,0,0,143,58.93a3.07,3.07,0,0,1-2.71.54,3.26,3.26,0,0,1-1.91-1.9l-.76,3.26Zm25.39-9.89a3.78,3.78,0,0,0-2.2,2.77A4.27,4.27,0,0,0,163.91,50.26Z" transform="translate(-27.56 -16.91)"/><path d="M161.58,37.14a21.57,21.57,0,0,0-3.89,4.77,4.44,4.44,0,0,1-1.8,1.29c-.55.27-1,.1-2.38-.5a3.23,3.23,0,0,1,.1-2.61c.25-.5.51-1,.8-1.46,1.23-2.05,3.29-2.63,5.44-3a1.29,1.29,0,0,1,.92.39A7.21,7.21,0,0,1,161.58,37.14Z" transform="translate(-27.56 -16.91)"/></svg>